<?xml version="1.0" encoding="utf-8"?>
<!-- Generator: Adobe Illustrator 19.0.0, SVG Export Plug-In . SVG Version: 6.00 Build 0)  -->
<svg version="1.1" id="Layer_1" xmlns="http://www.w3.org/2000/svg" xmlns:xlink="http://www.w3.org/1999/xlink" x="0px" y="0px"
	 viewBox="0 0 600 600" style="enable-background:new 0 0 600 600;" xml:space="preserve">
<style type="text/css">
	.st0{fill:#0E0E0E;}
	.st1{fill:#FFFFFF;}
	.st2{fill:#EAEAEA;}
</style>
<g>
	<path id="XMLID_8_" class="st0" d="M300,65.3c29.4-14.9,47.8,9.9,47.8,9.9c41.4,3.7,41.4,35.9,41.4,35.9
		c28.5,12.9,4.6,50.6,4.6,50.6c6.4,16,3.7,27.6,3.7,27.6c-8.3,23-4.6,38.6-4.6,38.6c1.8-3.7,10.1-5.5,10.1-5.5
		c15.6,4.6-8.3,35.5-8.3,35.5c-4.6,10.6-5.5,17.9-5.5,17.9c0,13.8-12,13.8-12,13.8l-2.8,23.9c0,15.6-10.1,23-10.1,23
		c0,55.2,20.2,57,20.2,57c9.2,0,17.5,9.2,17.5,9.2c29.4,27.6,122.3,62.5,122.3,62.5c70.8,17.5,74.5,74.5,74.5,74.5H1.2
		c0,0,3.7-57,74.5-74.5c0,0,92.9-34.9,122.3-62.5c0,0,8.3-9.2,17.5-9.2c0,0,20.2-1.8,20.2-57c0,0-10.1-7.4-10.1-23l-2.8-23.9
		c0,0-12,0-12-13.8c0,0-0.9-7.2-5.5-17.9c0,0-23.9-30.9-8.3-35.5c0,0,8.3,1.8,10.1,5.5c0,0,3.7-15.6-4.6-38.6c0,0-2.7-11.5,3.7-27.6
		c0,0-23.9-37.7,4.6-50.6c0,0,0-32.2,41.4-35.9C252.2,75.2,270.6,50.3,300,65.3L300,65.3z"/>
	<g>
		<polygon id="XMLID_7_" class="st1" points="248.6,539.5 299.3,539.5 299.3,425.7 220.1,428.3 		"/>
		<polygon id="XMLID_6_" class="st1" points="300.7,425.7 300.7,539.5 351.4,539.5 379.9,428.3 		"/>
	</g>
	<path id="XMLID_5_" class="st0" d="M322.5,539.5c-4-25.5-13.3-47.9-13.3-47.9l23.6-48.5l-4.6-14.9h-27.1h-2.4h-27.1l-4.6,14.9
		l23.6,48.5c0,0-9.3,22.4-13.3,47.9L322.5,539.5z"/>
	<g>
		<g>
			<g>
				<path id="XMLID_4_" class="st2" d="M261.1,478.7l39.8-53l-81.4-35.4c0,0-6.7-0.8-20,9.6L261.1,478.7z"/>
			</g>
		</g>
		<g>
			<g>
				<path id="XMLID_3_" class="st2" d="M338.9,478.7l-39.8-53l81.4-35.4c0,0,6.7-0.8,20,9.6L338.9,478.7z"/>
			</g>
		</g>
	</g>
	<g>
		<polygon id="XMLID_2_" class="st0" points="248.8,539.5 213.1,391.8 146.4,434.5 		"/>
		<polygon id="XMLID_1_" class="st0" points="351.2,539.5 386.9,391.8 453.6,434.5 		"/>
	</g>
</g>
</svg>
