<?xml version="1.0" encoding="iso-8859-1"?>
<!-- Generator: Adobe Illustrator 19.1.0, SVG Export Plug-In . SVG Version: 6.00 Build 0)  -->
<svg xmlns="http://www.w3.org/2000/svg" xmlns:xlink="http://www.w3.org/1999/xlink" version="1.1" id="Capa_1" x="0px" y="0px" viewBox="0 0 489.014 489.014" style="enable-background:new 0 0 489.014 489.014;" xml:space="preserve" width="512px" height="512px">
<g>
	<g>
		<path d="M109.083,216.814L109.083,216.814c0.1,0,0.1,0,0.2,0s0.1,0,0.2,0l0,0c30.5-0.3,26.1-41.1,26.1-41.1    c-1.2-27.2-24-27-26.3-26.9c-2.2-0.1-25-0.3-26.3,26.9C82.983,175.714,78.583,216.414,109.083,216.814z" fill="#ff2a40"/>
		<path d="M199.383,216.814c0.1,0,0.1,0,0.2,0l0,0c30.5-0.3,26.1-41.1,26.1-41.1c-1.2-27.2-24-27-26.3-26.9    c-2.2-0.1-25-0.3-26.3,26.9c0,0-4.4,40.8,26.1,41.1l0,0C199.183,216.814,199.283,216.814,199.383,216.814z" fill="#ff2a40"/>
		<path d="M289.383,216.814c0.1,0,0.1,0,0.2,0l0,0c30.5-0.3,26.1-41.1,26.1-41.1c-1.2-27.2-24-27-26.3-26.9    c-2.2-0.1-25-0.3-26.3,26.9c0,0-4.4,40.8,26.1,41.1l0,0C289.283,216.814,289.383,216.814,289.383,216.814z" fill="#ff2a40"/>
		<path d="M353.183,175.714c0,0-4.4,40.8,26.1,41.1l0,0c0.1,0,0.1,0,0.2,0s0.1,0,0.2,0l0,0c30.5-0.3,26.1-41.1,26.1-41.1    c-1.2-27.2-24-27-26.3-26.9C377.283,148.714,354.483,148.414,353.183,175.714z" fill="#ff2a40"/>
		<path d="M431.383,244.514c-2.7-2.7-4-4-6.9-6.1c-11.3-8.3-25.2-14-25.2-14l-10.6,33.5l-6.2-17.6c11.1-15.5-1.3-16-3-15.9    c-1.7,0-14.1,0.4-3,15.9l-6.2,17.6l-10.6-33.5c0,0-13.9,5.6-25.2,14l0,0l0,0c-11.3-8.3-25.2-14-25.2-14l-10.6,33.5l-6.2-17.6    c11.1-15.5-1.3-16-3-15.9c-1.7,0-14.1,0.4-3,15.9l-6.2,17.6l-10.6-33.5c0,0-13.9,5.6-25.2,14l0,0l0,0c-11.3-8.3-25.2-14-25.2-14    l-10.6,33.5l-6.2-17.6c11.1-15.5-1.3-16-3-15.9c-1.7,0-14.1,0.4-3,15.9l-6.2,17.6l-10.6-33.5c0,0-13.9,5.6-25.2,14l0,0l0,0    c-11.3-8.3-25.2-14-25.2-14l-10.6,33.5l-6.2-17.6c11.1-15.5-1.3-16-3-15.9c-1.7,0-14.1,0.4-3,15.9l-6.2,17.6l-10.6-33.5    c0,0-13.9,5.6-25.2,14c-3,2.2-4.3,3.5-6.9,6.1c-6.3,6.3-3.6,42.6,0,55.9s14.3,32.4,14.3,32.4c2.1,4.9,3.5,10,4,15.3l13.4,133.4    c0.4,4.2,4,7.5,8.3,7.5h11.8h11.8c4.3,0,7.8-3.2,8.3-7.5l13.6-133.4c0.5-5.3,1.9-10.4,4-15.3c0,0,3.6-6.5,7.4-14.6    c3.7,8.1,7.4,14.6,7.4,14.6c2.1,4.9,3.5,10,4,15.3l13.4,133.4c0.4,4.2,4,7.5,8.3,7.5h11.8h11.8c4.3,0,7.8-3.2,8.3-7.5l13.6-133.4    c0.5-5.3,1.9-10.4,4-15.3c0,0,3.6-6.5,7.4-14.6c3.7,8.1,7.4,14.6,7.4,14.6c2.1,4.9,3.5,10,4,15.3l13.5,133.4    c0.4,4.2,4,7.5,8.3,7.5h11.7h11.8c4.3,0,7.8-3.2,8.3-7.5l13.6-133.4c0.5-5.3,1.9-10.4,4-15.3c0,0,3.6-6.5,7.4-14.6    c3.7,8.1,7.4,14.6,7.4,14.6c2.1,4.9,3.5,10,4,15.3l13.6,133.4c0.4,4.2,4,7.5,8.3,7.5h11.8h11.8c4.3,0,7.8-3.2,8.3-7.5l13.6-133.4    c0.5-5.3,1.9-10.4,4-15.3c0,0,10.6-19.1,14.3-32.4C435.083,287.114,437.683,250.714,431.383,244.514z" fill="#ff2a40"/>
		<path d="M154.483,141.814L154.483,141.814c0.1,0,0.1,0,0.2,0c0.1,0,0.1,0,0.2,0l0,0c30.5-0.3,26.1-41.1,26.1-41.1    c-1.2-27.3-24-27-26.3-26.9c-2.2-0.1-25-0.3-26.3,26.9C128.383,100.714,123.983,141.514,154.483,141.814z" fill="#ff2a40"/>
		<path d="M218.483,100.714c0,0-4.4,40.8,26.1,41.1l0,0c0.1,0,0.1,0,0.2,0s0.1,0,0.2,0l0,0c30.5-0.3,26.1-41.1,26.1-41.1    c-1.2-27.3-24-27-26.3-26.9C242.483,73.714,219.683,73.514,218.483,100.714z" fill="#ff2a40"/>
		<path d="M308.483,100.714c0,0-4.4,40.8,26.1,41.1l0,0c0.1,0,0.1,0,0.2,0s0.1,0,0.2,0l0,0c30.5-0.3,26.1-41.1,26.1-41.1    c-1.2-27.3-24-27-26.3-26.9C332.583,73.714,309.783,73.514,308.483,100.714z" fill="#ff2a40"/>
		<path d="M199.483,68.014L199.483,68.014c0.1,0,0.1,0,0.2,0c0.1,0,0.1,0,0.2,0l0,0c30.5-0.3,26.1-41.1,26.1-41.1    c-1.2-27.3-24-27-26.3-26.9c-2.2-0.1-25-0.3-26.3,26.9C173.383,26.914,168.983,67.714,199.483,68.014z" fill="#ff2a40"/>
		<path d="M289.583,68.014L289.583,68.014c0.1,0,0.1,0,0.2,0s0.1,0,0.2,0l0,0c30.5-0.3,26.1-41.1,26.1-41.1    c-1.2-27.3-24-27-26.3-26.9c-2.2-0.1-25-0.3-26.3,26.9C263.483,26.914,259.083,67.714,289.583,68.014z" fill="#ff2a40"/>
	</g>
</g>
<g>
</g>
<g>
</g>
<g>
</g>
<g>
</g>
<g>
</g>
<g>
</g>
<g>
</g>
<g>
</g>
<g>
</g>
<g>
</g>
<g>
</g>
<g>
</g>
<g>
</g>
<g>
</g>
<g>
</g>
</svg>
