<?xml version="1.0" encoding="iso-8859-1"?>
<!-- Generator: Adobe Illustrator 19.0.0, SVG Export Plug-In . SVG Version: 6.00 Build 0)  -->
<svg xmlns="http://www.w3.org/2000/svg" xmlns:xlink="http://www.w3.org/1999/xlink" version="1.1" id="Capa_1" x="0px" y="0px" viewBox="0 0 512 512" style="enable-background:new 0 0 512 512;" xml:space="preserve" width="512px" height="512px">
<g>
	<g>
		<path d="M497,96.4h-96.399H207.8c-8.284,0-15,6.716-15,15v96.4c0,8.284,6.716,15,15,15h192.801c8.284,0,15-6.716,15-15    s-6.716-15-15-15H222.8v-66.4h177.801H482V497c0,8.284,6.716,15,15,15s15-6.716,15-15V111.4C512,103.116,505.284,96.4,497,96.4z" fill="#FFFFFF"/>
	</g>
</g>
<g>
	<g>
		<path d="M304.2,385.601H111.4c-8.284,0-15,6.716-15,15s6.716,15,15,15h177.8V482H111.4H30V111.4c0-8.284-6.716-15-15-15    s-15,6.716-15,15V497c0,8.284,6.716,15,15,15h96.4h192.8c8.284,0,15-6.716,15-15v-96.399    C319.2,392.316,312.484,385.601,304.2,385.601z" fill="#FFFFFF"/>
	</g>
</g>
<g>
	<g>
		<path d="M400.601,289.201H126.4V62.134h9.1c0.007,0,0.015-0.001,0.02,0c8.285,0,15-6.716,15-15c0-3.629-1.288-6.957-3.433-9.552    L123.4,6c-2.833-3.777-7.278-6-12-6c-4.721,0-9.167,2.223-12,6L75.3,38.134c-3.409,4.545-3.957,10.626-1.416,15.708    c2.54,5.082,7.734,8.292,13.416,8.292h9.1v242.067c0,8.284,6.716,15,15,15h274.2V497c0,8.284,6.716,15,15,15s15-6.716,15-15    V304.201C415.601,295.917,408.885,289.201,400.601,289.201z" fill="#FFFFFF"/>
	</g>
</g>
<g>
</g>
<g>
</g>
<g>
</g>
<g>
</g>
<g>
</g>
<g>
</g>
<g>
</g>
<g>
</g>
<g>
</g>
<g>
</g>
<g>
</g>
<g>
</g>
<g>
</g>
<g>
</g>
<g>
</g>
</svg>
