<?xml version="1.0" encoding="iso-8859-1"?>
<!-- Generator: Adobe Illustrator 19.0.0, SVG Export Plug-In . SVG Version: 6.00 Build 0)  -->
<svg version="1.1" id="Capa_1" xmlns="http://www.w3.org/2000/svg" xmlns:xlink="http://www.w3.org/1999/xlink" x="0px" y="0px"
	 viewBox="0 0 512.811 512.811" style="enable-background:new 0 0 512.811 512.811;" xml:space="preserve">
<g>
	<g>
		<path d="M363.413,278.144c-64.704,0-117.333,52.629-117.333,117.333s52.629,117.333,117.333,117.333
			s117.333-52.629,117.333-117.333S428.117,278.144,363.413,278.144z M363.413,491.477c-52.928,0-96-43.072-96-96
			c0-52.928,43.072-96,96-96c52.949,0,96,43.072,96,96C459.413,448.405,416.341,491.477,363.413,491.477z"/>
	</g>
</g>
<g>
	<g>
		<path d="M434.923,345.28c-4.16-4.16-10.923-4.16-15.083,0l-77.781,77.781l-35.115-35.115c-4.16-4.16-10.923-4.16-15.083,0
			c-4.16,4.16-4.16,10.923,0,15.083l42.667,42.667c2.091,2.069,4.821,3.115,7.552,3.115c2.731,0,5.461-1.045,7.509-3.115
			l85.333-85.333C439.083,356.203,439.083,349.44,434.923,345.28z"/>
	</g>
</g>
<g>
	<g>
		<path d="M384.064,42.667h-55.296c-4.416-12.395-16.149-21.333-30.037-21.333h-37.845C253.355,8.32,239.381,0,224.064,0
			s-29.291,8.32-36.821,21.333h-37.845c-13.888,0-25.621,8.939-30.037,21.333H64.064c-17.643,0-32,14.357-32,32V480
			c0,17.643,14.357,32,32,32h202.667c5.888,0,10.667-4.779,10.667-10.667s-4.779-10.667-10.667-10.667H64.064
			c-5.888,0-10.667-4.779-10.667-10.667V74.667C53.397,68.779,58.176,64,64.064,64h53.333v10.667
			c0,5.888,4.779,10.667,10.667,10.667h192c5.888,0,10.667-4.779,10.667-10.667V64h53.333c5.888,0,10.667,4.779,10.667,10.667
			v170.667c0,5.888,4.779,10.667,10.667,10.667c5.888,0,10.667-4.779,10.667-10.667V74.667
			C416.064,57.024,401.707,42.667,384.064,42.667z M309.397,64H138.731V53.333c0-5.888,4.779-10.667,10.667-10.667h44.629
			c4.501,0,8.533-2.859,10.048-7.104c3.029-8.512,11.072-14.229,19.989-14.229c8.917,0,16.96,5.717,19.989,14.229
			c1.515,4.267,5.547,7.104,10.048,7.104h44.629c5.888,0,10.667,4.779,10.667,10.667V64z"/>
	</g>
</g>
<g>
</g>
<g>
</g>
<g>
</g>
<g>
</g>
<g>
</g>
<g>
</g>
<g>
</g>
<g>
</g>
<g>
</g>
<g>
</g>
<g>
</g>
<g>
</g>
<g>
</g>
<g>
</g>
<g>
</g>
</svg>
