<?xml version="1.0" encoding="iso-8859-1"?>
<!-- Generator: Adobe Illustrator 19.0.0, SVG Export Plug-In . SVG Version: 6.00 Build 0)  -->
<svg version="1.1" id="Capa_1" xmlns="http://www.w3.org/2000/svg" xmlns:xlink="http://www.w3.org/1999/xlink" x="0px" y="0px"
	 viewBox="0 0 512 512" style="enable-background:new 0 0 512 512;" xml:space="preserve">
<g>
	<g>
		<path d="M362.667,277.312c-64.704,0-117.333,52.629-117.333,117.333c0,32.32,13.141,61.611,34.347,82.859
			c0.043,0.043,0.043,0.128,0.085,0.171c0.256,0.256,0.555,0.427,0.811,0.661c5.099,4.992,10.603,9.557,16.533,13.568
			c0.704,0.469,1.429,0.853,2.155,1.301c5.675,3.669,11.627,6.912,17.899,9.579c0.747,0.32,1.515,0.533,2.24,0.832
			c6.379,2.539,12.992,4.608,19.861,6.016c0.427,0.085,0.853,0.107,1.259,0.192c7.189,1.387,14.571,2.176,22.144,2.176
			s14.955-0.789,22.123-2.155c0.427-0.085,0.853-0.107,1.259-0.192c6.891-1.408,13.504-3.477,19.904-6.037
			c0.725-0.299,1.472-0.512,2.197-0.811c6.336-2.667,12.331-5.952,18.048-9.643c0.661-0.427,1.344-0.768,1.984-1.216
			c6.037-4.075,11.648-8.725,16.811-13.824c0.171-0.171,0.384-0.299,0.576-0.469c0.021-0.021,0.021-0.085,0.064-0.107
			C466.859,456.299,480,426.987,480,394.645C480,329.941,427.371,277.312,362.667,277.312z M420.331,470.933
			c-2.261,1.685-4.48,3.392-6.848,4.843c-1.899,1.195-3.968,2.176-5.952,3.243c-27.733,14.229-61.973,14.229-89.707,0
			c-2.005-1.067-4.053-2.027-5.952-3.243c-2.389-1.451-4.608-3.179-6.848-4.864c-1.685-1.28-3.285-2.645-4.885-4.032
			c11.285-24.299,35.541-40.213,62.528-40.213c26.987,0,51.243,15.915,62.549,40.235
			C423.616,468.288,422.016,469.653,420.331,470.933z M330.667,373.333c0-17.643,14.357-32,32-32s32,14.357,32,32
			c0,17.643-14.357,32-32,32S330.667,390.976,330.667,373.333z M440.469,450.453c-9.856-16.917-24.768-29.952-42.389-37.547
			c10.901-9.771,17.92-23.808,17.92-39.573C416,343.936,392.064,320,362.667,320s-53.333,23.936-53.333,53.333
			c0,15.765,7.019,29.803,17.92,39.573c-17.621,7.616-32.533,20.651-42.389,37.568c-11.328-15.765-18.197-34.944-18.197-55.808
			c0-52.928,43.072-96,96-96c52.928,0,96,43.072,96,96C458.667,415.509,451.797,434.688,440.469,450.453z"/>
	</g>
</g>
<g>
	<g>
		<path d="M384,42.667h-55.296c-4.416-12.395-16.149-21.333-30.037-21.333h-37.845C253.291,8.32,239.317,0,224,0
			s-29.291,8.32-36.821,21.333h-37.845c-13.888,0-25.621,8.939-30.037,21.333H64c-17.643,0-32,14.357-32,32V480
			c0,17.643,14.357,32,32,32h202.667c5.888,0,10.667-4.779,10.667-10.667c0-5.888-4.779-10.667-10.667-10.667H64
			c-5.888,0-10.667-4.779-10.667-10.667V74.667C53.333,68.779,58.112,64,64,64h53.333v10.667c0,5.888,4.779,10.667,10.667,10.667
			h192c5.888,0,10.667-4.779,10.667-10.667V64H384c5.888,0,10.667,4.779,10.667,10.667v170.667c0,5.888,4.779,10.667,10.667,10.667
			c5.888,0,10.667-4.779,10.667-10.667V74.667C416,57.024,401.643,42.667,384,42.667z M309.333,64H138.667V53.333
			c0-5.888,4.779-10.667,10.667-10.667h44.629c4.501,0,8.533-2.837,10.048-7.104c3.029-8.512,11.072-14.229,19.989-14.229
			s16.96,5.717,19.989,14.229c1.515,4.267,5.547,7.104,10.048,7.104h44.629c5.888,0,10.667,4.779,10.667,10.667V64z"/>
	</g>
</g>
<g>
</g>
<g>
</g>
<g>
</g>
<g>
</g>
<g>
</g>
<g>
</g>
<g>
</g>
<g>
</g>
<g>
</g>
<g>
</g>
<g>
</g>
<g>
</g>
<g>
</g>
<g>
</g>
<g>
</g>
</svg>
