<?xml version="1.0" encoding="iso-8859-1"?>
<!-- Generator: Adobe Illustrator 19.0.0, SVG Export Plug-In . SVG Version: 6.00 Build 0)  -->
<svg version="1.1" id="Capa_1" xmlns="http://www.w3.org/2000/svg" xmlns:xlink="http://www.w3.org/1999/xlink" x="0px" y="0px"
	 viewBox="0 0 512 512" style="enable-background:new 0 0 512 512;" xml:space="preserve">
<g>
	<g>
		<path d="M426.667,362.667H277.333c-41.173,0-74.667,33.493-74.667,74.667S236.16,512,277.333,512h117.333
			c5.888,0,10.667-4.779,10.667-10.667c0-5.888-4.779-10.667-10.667-10.667H277.333c-29.419,0-53.333-23.936-53.333-53.333
			S247.915,384,277.333,384h149.333c17.643,0,32,14.357,32,32c0,17.643-14.357,32-32,32H277.333
			c-5.867,0-10.667-4.779-10.667-10.667c0-5.888,4.8-10.667,10.667-10.667h117.333c5.888,0,10.667-4.779,10.667-10.667
			c0-5.888-4.779-10.667-10.667-10.667H277.333c-17.643,0-32,14.357-32,32c0,17.643,14.357,32,32,32h149.333
			C456.085,469.333,480,445.397,480,416S456.085,362.667,426.667,362.667z"/>
	</g>
</g>
<g>
	<g>
		<path d="M384,42.667h-55.296c-4.416-12.395-16.149-21.333-30.037-21.333h-37.845C253.269,8.32,239.296,0,224,0
			s-29.269,8.32-36.821,21.333h-37.845c-13.888,0-25.621,8.939-30.037,21.333H64c-17.643,0-32,14.357-32,32V480
			c0,17.643,14.357,32,32,32h138.667c5.888,0,10.667-4.779,10.667-10.667c0-5.888-4.779-10.667-10.667-10.667H64
			c-5.867,0-10.667-4.779-10.667-10.667V74.667C53.333,68.779,58.133,64,64,64h53.333v10.667c0,5.888,4.779,10.667,10.667,10.667
			h192c5.888,0,10.667-4.779,10.667-10.667V64H384c5.867,0,10.667,4.779,10.667,10.667v256c0,5.888,4.779,10.667,10.667,10.667
			c5.888,0,10.667-4.779,10.667-10.667v-256C416,57.024,401.643,42.667,384,42.667z M309.333,64H138.667V53.333
			c0-5.888,4.8-10.667,10.667-10.667h44.608c4.523,0,8.555-2.837,10.048-7.083c3.051-8.512,11.093-14.251,20.011-14.251
			s16.96,5.739,19.989,14.251c1.515,4.245,5.525,7.083,10.048,7.083h44.629c5.867,0,10.667,4.779,10.667,10.667V64z"/>
	</g>
</g>
<g>
</g>
<g>
</g>
<g>
</g>
<g>
</g>
<g>
</g>
<g>
</g>
<g>
</g>
<g>
</g>
<g>
</g>
<g>
</g>
<g>
</g>
<g>
</g>
<g>
</g>
<g>
</g>
<g>
</g>
</svg>
