<?xml version="1.0" encoding="iso-8859-1"?>
<!-- Generator: Adobe Illustrator 19.0.0, SVG Export Plug-In . SVG Version: 6.00 Build 0)  -->
<svg version="1.1" id="Capa_1" xmlns="http://www.w3.org/2000/svg" xmlns:xlink="http://www.w3.org/1999/xlink" x="0px" y="0px"
	 viewBox="0 0 512 512" style="enable-background:new 0 0 512 512;" xml:space="preserve">
<g>
	<g>
		<path d="M476.872,323.115l-42.667-42.667c-4.16-4.16-10.923-4.16-15.083,0L248.456,451.115c-1.984,2.005-3.115,4.715-3.115,7.552
			v42.667c0,5.888,4.779,10.667,10.667,10.667h42.667c2.837,0,5.547-1.131,7.531-3.136l127.936-127.936
			c0.021-0.021,0.043-0.021,0.064-0.043c0.021-0.021,0.021-0.043,0.043-0.064l42.624-42.624
			C481.032,334.037,481.032,327.275,476.872,323.115z M294.259,490.667h-27.584v-27.584l117.333-117.333l27.584,27.584
			L294.259,490.667z M426.675,358.251l-27.584-27.584l27.584-27.584l27.584,27.584L426.675,358.251z"/>
	</g>
</g>
<g>
	<g>
		<path d="M384.008,42.667h-55.296c-4.416-12.395-16.149-21.333-30.037-21.333h-37.845C253.299,8.32,239.325,0,224.008,0
			s-29.291,8.32-36.821,21.333h-37.845c-13.867,0-25.6,8.939-30.016,21.333H64.008c-17.643,0-32,14.357-32,32V480
			c0,17.643,14.357,32,32,32h149.333c5.888,0,10.667-4.779,10.667-10.667c0-5.888-4.779-10.667-10.667-10.667H64.008
			c-5.888,0-10.667-4.779-10.667-10.667V74.667C53.341,68.779,58.12,64,64.008,64h53.333v10.667c0,5.888,4.779,10.667,10.667,10.667
			h192c5.888,0,10.667-4.779,10.667-10.667V64h53.333c5.888,0,10.667,4.779,10.667,10.667V256c0,5.888,4.779,10.667,10.667,10.667
			c5.888,0,10.667-4.779,10.667-10.667V74.667C416.008,57.024,401.651,42.667,384.008,42.667z M309.341,64H138.675V53.333
			c0-5.888,4.779-10.667,10.667-10.667h44.629c4.501,0,8.533-2.859,10.048-7.104c3.029-8.512,11.072-14.229,19.989-14.229
			s16.96,5.717,19.989,14.229c1.515,4.267,5.547,7.104,10.048,7.104h44.629c5.888,0,10.667,4.779,10.667,10.667V64z"/>
	</g>
</g>
<g>
</g>
<g>
</g>
<g>
</g>
<g>
</g>
<g>
</g>
<g>
</g>
<g>
</g>
<g>
</g>
<g>
</g>
<g>
</g>
<g>
</g>
<g>
</g>
<g>
</g>
<g>
</g>
<g>
</g>
</svg>
