<?xml version="1.0" encoding="iso-8859-1"?>
<!-- Generator: Adobe Illustrator 19.0.0, SVG Export Plug-In . SVG Version: 6.00 Build 0)  -->
<svg version="1.1" id="Capa_1" xmlns="http://www.w3.org/2000/svg" xmlns:xlink="http://www.w3.org/1999/xlink" x="0px" y="0px"
	 viewBox="0 0 512 512" style="enable-background:new 0 0 512 512;" xml:space="preserve">
<g>
	<g>
		<path d="M476.872,493.803l-57.749-57.749c11.264-14.443,18.219-32.363,18.219-52.053c0-47.061-38.272-85.333-85.333-85.333
			S266.675,336.939,266.675,384c0,47.061,38.272,85.333,85.333,85.333c19.669,0,37.589-6.955,52.032-18.197l57.749,57.749
			c2.091,2.069,4.821,3.115,7.552,3.115c2.731,0,5.461-1.045,7.531-3.115C481.032,504.725,481.032,497.963,476.872,493.803z
			 M352.008,448c-35.285,0-64-28.715-64-64c0-35.285,28.715-64,64-64s64,28.715,64,64C416.008,419.285,387.293,448,352.008,448z"/>
	</g>
</g>
<g>
	<g>
		<path d="M405.341,298.667c5.888,0,10.667-4.779,10.667-10.667V74.667c0-17.643-14.357-32-32-32h-55.296
			c-4.416-12.395-16.149-21.333-30.037-21.333h-37.845C253.299,8.32,239.325,0,224.008,0s-29.291,8.32-36.821,21.333h-37.845
			c-13.867,0-25.6,8.939-30.016,21.333H64.008c-17.643,0-32,14.357-32,32V480c0,17.643,14.357,32,32,32h320
			c17.643,0,32-14.357,32-32c0-5.888-4.779-10.667-10.667-10.667c-5.888,0-10.667,4.779-10.667,10.667
			c0,5.888-4.779,10.667-10.667,10.667h-320c-5.888,0-10.667-4.779-10.667-10.667V74.667C53.341,68.779,58.12,64,64.008,64h53.333
			v10.667c0,5.888,4.779,10.667,10.667,10.667h192c5.888,0,10.667-4.779,10.667-10.667V64h53.333
			c5.888,0,10.667,4.779,10.667,10.667V288C394.675,293.888,399.453,298.667,405.341,298.667z M309.341,64H138.675V53.333
			c0-5.888,4.779-10.667,10.667-10.667h44.629c4.501,0,8.533-2.859,10.048-7.104c3.029-8.512,11.072-14.229,19.989-14.229
			s16.96,5.717,19.989,14.229c1.515,4.267,5.547,7.104,10.048,7.104h44.629c5.888,0,10.667,4.779,10.667,10.667V64z"/>
	</g>
</g>
<g>
</g>
<g>
</g>
<g>
</g>
<g>
</g>
<g>
</g>
<g>
</g>
<g>
</g>
<g>
</g>
<g>
</g>
<g>
</g>
<g>
</g>
<g>
</g>
<g>
</g>
<g>
</g>
<g>
</g>
</svg>
