<svg class="svgicon" id="svg14" preserveAspectRatio="xMidYMid meet" xmlns="http://www.w3.org/2000/svg" viewBox="0 0 60 60"><style> #svg14 path, #svg14 circle, #svg14 polygon, #svg14 rect { fill: rgb(0, 0, 0) } #svg14 defs &gt; path { fill: none } #svg14 path[fill="none"], #svg14 circle[fill="none"], #svg14 polygon[fill="none"], #svg14 rect[fill="none"] { fill: none } </style><style type="text/css"> #svg14 .st0{fill:none;stroke:rgb(0, 0, 0);stroke-width:1.5001;stroke-linecap:round;stroke-linejoin:round;stroke-miterlimit:10;} #svg14 .st1{fill:none;stroke:rgb(0, 0, 0);stroke-width:1.5;stroke-linecap:round;stroke-linejoin:round;stroke-miterlimit:10;} </style><path class="st1" d="M52.187,54.474c-0.448-3.158-0.972-6.416-1.433-8.136c-0.856-3.195-7.076-5.884-15.387-6.713"></path><path class="st1" d="M24.39,39.64c-8.21,0.848-14.292,3.522-15.144,6.698c-0.46,1.72-0.984,4.978-1.433,8.136"></path><line class="st1" x1="18.403" y1="40.667" x2="18.403" y2="50.582"></line><line class="st1" x1="41.598" y1="50.582" x2="41.598" y2="40.683"></line><polyline class="st1" points="44.858,59.084 41.575,50.582 29.953,56.429 18.37,50.582 15.032,59.033 "></polyline><path class="st1" d="M25.243,36.93l-10.377,0.138c0,0-3.111-15.431,4.526-30.423"></path><path class="st1" d="M34.993,36.93l10.136,0.138c0,0,3.112-15.431-4.526-30.423"></path><path class="st1" d="M24.818,33.171c1.181,4.436-0.181,6.474-0.181,6.474"></path><path class="st1" d="M35.362,39.646c0,0-1.312-1.963-0.243-6.229"></path><path class="st1" d="M18.721,16.982c0,4.422,0.791,7.887,1.976,10.562c2.607,5.883,7.119,7.939,9.305,7.939 c2.184,0,6.695-2.057,9.303-7.939c1.186-2.675,1.977-6.14,1.977-10.562"></path><path class="st1" d="M30,0.916L30,0.916c-4.938,0-9.204,1.536-11.229,7.209c-0.803,2.249-1.253,5.147-1.253,8.857l10.926-5.105 l1.344-1.994l1.414,1.994l11.279,5.105c0-3.268-0.349-5.906-0.98-8.025C39.606,2.6,35.171,0.916,30,0.916L30,0.916"></path><path class="st1" d="M37.032,16.528c2.186,0,2.416,1.231,2.416,3.415c0,2.186-1.771,2.652-3.955,2.652 c-2.186,0-3.957-1.174-3.957-3.358S33.49,16.528,37.032,16.528z"></path><path class="st1" d="M28.371,19.237c0,2.185-1.771,3.358-3.956,3.358c-2.186,0-3.957-0.467-3.957-2.652 c0-2.184,0.232-3.415,2.417-3.415C26.417,16.528,28.371,17.053,28.371,19.237z"></path><line class="st1" x1="28.648" y1="18.562" x2="31.354" y2="18.562"></line></svg>