<svg class="svgicon" id="svg37" preserveAspectRatio="xMidYMid meet" xmlns="http://www.w3.org/2000/svg" viewBox="0 0 60 60"><rect x="0.8999999999999999" y="0.8999999999999999" width="58.2" height="58.2" style="stroke: rgb(255, 42, 64); fill: none; stroke-alignment: inside; stroke-width: 1.7999999999999998" rx="29.1" ry="29.1"></rect><g transform="scale(0.5) translate(30, 30)"><style> #svg37 path, #svg37 circle, #svg37 polygon, #svg37 rect { fill: rgb(255, 42, 64) } #svg37 defs &gt; path { fill: none } #svg37 path[fill="none"], #svg37 circle[fill="none"], #svg37 polygon[fill="none"], #svg37 rect[fill="none"] { fill: none } </style><style type="text/css"> #svg37 .st0{fill:rgb(255, 42, 64);} </style><path class="st0" d="M25.263,51.58c-0.192,0-0.384-0.073-0.53-0.22C17.72,44.349,1.013,3.303,0.305,1.559 c-0.112-0.278-0.049-0.597,0.162-0.81c0.211-0.214,0.53-0.281,0.809-0.169C1.59,0.703,32.813,13.073,47.452,21.231 c0.361,0.202,0.491,0.659,0.29,1.021c-0.202,0.361-0.655,0.493-1.021,0.29C34.1,15.507,9.007,5.297,2.366,2.63 C5.614,10.5,19.765,44.272,25.793,50.3c0.293,0.293,0.293,0.768,0,1.061C25.646,51.507,25.455,51.58,25.263,51.58z"></path><path class="st0" d="M40.313,59.473c-0.045,0-0.091-0.004-0.136-0.012l-7.764-1.431c-0.077-0.015-0.151-0.041-0.221-0.078 l-3.553-1.918c-0.092-0.05-0.173-0.119-0.237-0.202l-7.204-9.32c-0.09-0.116-0.144-0.257-0.154-0.404l-0.267-3.633l-0.838-3.209 c-0.031-0.119-0.032-0.243-0.004-0.362l1.817-7.682c0.03-0.128,0.094-0.246,0.184-0.341l3.458-3.672 c0.09-0.095,0.202-0.165,0.327-0.203l4.203-1.281l1.832-4.162c0.089-0.201,0.261-0.354,0.472-0.417l3.867-1.156 c0.222-0.066,0.466-0.026,0.654,0.111l1.382,0.999l8.982-0.029c0.001,0,0.002,0,0.003,0c0.31,0,0.587,0.19,0.699,0.478 l0.79,2.033l5.387,2.059c0.154,0.059,0.284,0.167,0.371,0.307l4.146,6.718c0.041,0.067,0.071,0.14,0.09,0.215l0.961,3.919 c0.011,0.045,0.018,0.091,0.021,0.138l0.166,3.056c0.004,0.071-0.003,0.144-0.02,0.213l-1.818,7.684 c-0.057,0.24-0.228,0.437-0.457,0.526l-1.926,0.75l0.303,1.883c0.035,0.217-0.026,0.438-0.169,0.605l-1.364,1.602 c-0.043,0.05-0.092,0.094-0.146,0.131l-6.503,4.479c-0.064,0.044-0.136,0.079-0.211,0.101l-3.867,1.155 c-0.223,0.065-0.464,0.025-0.654-0.111l-1.062-0.768l-1.011,1.011C40.702,59.396,40.511,59.473,40.313,59.473z M32.802,56.576 l7.26,1.338l1.184-1.184c0.261-0.26,0.671-0.293,0.97-0.078l1.281,0.926l3.399-1.015l6.324-4.355l1.075-1.263l-0.344-2.139 c-0.057-0.349,0.139-0.69,0.468-0.818l2.124-0.827l1.702-7.195l-0.156-2.878l-0.916-3.736l-3.951-6.402l-5.46-2.087 c-0.198-0.076-0.354-0.231-0.432-0.429l-0.725-1.863L37.894,22.6c-0.001,0-0.002,0-0.003,0c-0.158,0-0.312-0.05-0.439-0.143 l-1.279-0.925l-3.181,0.951l-1.831,4.16c-0.088,0.2-0.259,0.352-0.468,0.415l-4.342,1.323l-3.184,3.381l-1.729,7.305 l0.809,3.095c0.012,0.044,0.02,0.089,0.022,0.135l0.255,3.476l6.969,9.016L32.802,56.576z"></path><path class="st0" d="M28.957,44.218c-0.19,0-0.375-0.073-0.515-0.205l-3.204-3.028c-0.152-0.144-0.237-0.344-0.235-0.553 l0.043-3.885c0.002-0.196,0.081-0.383,0.22-0.522l3.726-3.726c0.193-0.194,0.474-0.269,0.742-0.189l3.84,1.129 c0.093,0.028,0.181,0.073,0.257,0.134l2.824,2.26c0.198,0.159,0.304,0.408,0.277,0.662l-0.26,2.547l0.427,1.288 c0.091,0.275,0.016,0.578-0.193,0.778l-2.707,2.589c-0.119,0.114-0.273,0.186-0.438,0.204l-4.723,0.515 C29.011,44.216,28.984,44.218,28.957,44.218z M26.507,40.12l2.714,2.564l4.125-0.449l2.18-2.085l-0.328-0.99 c-0.033-0.1-0.045-0.207-0.034-0.312l0.234-2.3l-2.39-1.913l-3.271-0.961l-3.195,3.195L26.507,40.12z"></path><path class="st0" d="M46.565,51.831c-0.056,0-0.111-0.006-0.167-0.019l-2.541-0.579c-0.095-0.022-0.185-0.062-0.265-0.118 l-1.923-1.354c-0.208-0.146-0.328-0.389-0.317-0.643l0.063-1.61l-0.309-0.767c-0.108-0.269-0.053-0.576,0.145-0.789l1.654-1.792 c0.112-0.122,0.261-0.203,0.424-0.23l3.049-0.523c0.217-0.039,0.439,0.023,0.607,0.164l2.202,1.839 c0.16,0.134,0.258,0.329,0.269,0.537l0.13,2.524c0.01,0.196-0.057,0.388-0.188,0.535l-2.272,2.571 C46.983,51.741,46.777,51.831,46.565,51.831z M44.335,49.804l1.963,0.447l1.775-2.008l-0.098-1.892l-1.685-1.407l-2.456,0.422 l-1.159,1.255l0.191,0.476c0.04,0.099,0.059,0.204,0.054,0.31l-0.054,1.363L44.335,49.804z"></path><path class="st0" d="M48.815,39.102c-0.054,0-0.108-0.006-0.162-0.018l-2.648-0.586c-0.161-0.036-0.307-0.124-0.413-0.25 l-2.213-2.639c-0.141-0.168-0.201-0.391-0.164-0.607l0.535-3.15c0.035-0.206,0.154-0.388,0.329-0.502l2.355-1.539 c0.165-0.106,0.364-0.144,0.557-0.108l3.746,0.745c0.269,0.054,0.487,0.25,0.569,0.512l0.866,2.767 c0.029,0.093,0.04,0.191,0.031,0.288l-0.224,2.611c-0.021,0.254-0.171,0.479-0.396,0.599l-1.601,0.849l-0.577,0.741 C49.264,38.998,49.044,39.102,48.815,39.102z M46.578,37.088l1.937,0.429l0.385-0.494c0.065-0.083,0.147-0.152,0.24-0.202 l1.382-0.732l0.176-2.057l-0.689-2.201l-3.009-0.598l-1.825,1.192l-0.422,2.485L46.578,37.088z"></path></g></svg>