<svg class="svgicon" id="svg43" preserveAspectRatio="xMidYMid meet" xmlns="http://www.w3.org/2000/svg" viewBox="0 0 60 60"><rect x="0.8999999999999999" y="0.8999999999999999" width="58.2" height="58.2" style="stroke: rgb(255, 42, 64); fill: none; stroke-alignment: inside; stroke-width: 1.7999999999999998" rx="29.1" ry="29.1"></rect><g transform="scale(0.5) translate(30, 30)"><style> #svg43 path, #svg43 circle, #svg43 polygon, #svg43 rect { fill: rgb(255, 42, 64) } #svg43 defs &gt; path { fill: none } #svg43 path[fill="none"], #svg43 circle[fill="none"], #svg43 polygon[fill="none"], #svg43 rect[fill="none"] { fill: none } </style><style type="text/css"> #svg43 .st0{fill:none;stroke:rgb(255, 42, 64);stroke-width:1.5;stroke-linecap:round;stroke-linejoin:round;stroke-miterlimit:10;} </style><path class="st0" d="M46.405,3.735c-17.843-3.328-27.974-2.875-32.66-2.421c-4.69,0.454-6.201,3.628-6.201,5.292 c0,1.966-0.604,3.027-1.361,3.478c-3.327,2.724-2.268,3.63-1.361,5.595c0.908,1.967,0.604,2.571-0.907,3.932 c-1.786,1.516-0.757,3.631-0.151,4.383c0.604,0.756,1.058,1.061,1.209,1.815c-1.209,0.606-2.417,3.024-2.417,3.782 c0.148,5.14,4.988,6.2,4.988,6.2s0,0,14.515,0c1.06,0.15,0.302,3.024-0.302,4.082c-2.569,4.537-4.082,8.617-4.082,10.737 c0.906,10.436,8.012,8.617,8.313,7.56c0.152-10.585,2.573-13.003,5.295-14.818c2.723-1.812,3.025-3.932,6.199-11.19 c3.175-7.257,8.948-4.838,8.948-4.838"></path><path class="st0" d="M47.317,28.079h9.214c0.503,0,0.912-0.407,0.912-0.913V3.135c0-0.503-0.409-0.914-0.912-0.914h-9.214 c-0.504,0-0.912,0.411-0.912,0.914v24.031C46.405,27.671,46.813,28.079,47.317,28.079z"></path></g></svg>