<svg class="svgicon" id="svg34" preserveAspectRatio="xMidYMid meet" xmlns="http://www.w3.org/2000/svg" viewBox="0 0 60 60"><rect x="0.8999999999999999" y="0.8999999999999999" width="58.2" height="58.2" style="stroke: rgb(255, 42, 64); fill: none; stroke-alignment: inside; stroke-width: 1.7999999999999998" rx="29.1" ry="29.1"></rect><g transform="scale(0.5) translate(30, 30)"><style> #svg34 path, #svg34 circle, #svg34 polygon, #svg34 rect { fill: rgb(255, 42, 64) } #svg34 defs &gt; path { fill: none } #svg34 path[fill="none"], #svg34 circle[fill="none"], #svg34 polygon[fill="none"], #svg34 rect[fill="none"] { fill: none } </style><style type="text/css"> #svg34 .st0{fill:none;stroke:rgb(255, 42, 64);stroke-width:1.5;stroke-linecap:round;stroke-linejoin:round;stroke-miterlimit:10;} </style><path class="st0" d="M37.878,43.281c-2.318-0.611-1.351-3.735-1.699-6.144c-0.239-1.635-2.255-2.441-1.831-4.312 M37.355,44.589c-3.042-1.107-3.246-4.652-4.575-7.321c-0.748-1.5-2.458-2.093-2.615-3.791 c-2.459,0.019-3.921-0.958-4.314-3.006c-0.995-0.748-2.445-1.039-2.222-3.006c-1.098-0.389-1.728-0.365-2.483,0.262 c-2.611-0.37-5.232,0.396-6.666-1.308c-0.203-0.241-0.203-0.682-0.392-1.047c-0.606-1.153-1.648-2.357-1.83-3.529 c-0.281-1.781,0.278-3.682,1.176-5.228c-0.11-1.592,0.671-2.292,1.437-3.006c0.689-2.231,1.953-3.887,3.66-5.098 c0.409,0.027,0.959-0.088,1.177,0.13c1.069-1.11,2.102-2.255,4.315-2.222c1.702-1.608,4.287-1.44,6.665-1.438 c0.641,0.001,1.207-0.295,1.83-0.262c0.336,0.019,0.695,0.363,1.047,0.393c0.534,0.045,1.164-0.417,1.699-0.393 c0.305,0.015,0.93,0.31,1.307,0.393c0.633,0.139,1.147,0.143,1.566,0.261c0.389,0.109,0.666,0.521,1.048,0.654 c0.159,0.055,0.524-0.155,0.654-0.131c1.203,0.226,2.57,1.31,3.397,1.961c0.36-0.156,0.46-0.37,0.915-0.131 c1.739,0.621,2.844,2.239,4.184,3.529c1.741,1.679,3.801,3.94,3.66,7.321c1.255,0.64,1.715,3.648,0.915,5.097 c0.561,3.931-0.908,6.926-3.007,8.628c-0.425,0.076-0.606-0.088-0.914-0.13c-1.39,4.202-7.108,7.962-12.288,5.098"></path><path class="st0" d="M33.817,10.605c-2.716,0.069-4.777,4.992-0.881,5.292c0.164,0.902,1.01,1.737,1.89,1.512 M32.306,10.857c-0.161-1.639-3.107-1.996-5.165-1.764 M23.36,13.755c-0.515-0.326-1.251-0.428-2.142-0.378 M28.401,18.542c-0.186-1.467-1.523-3.499-3.781-2.897c0.052-0.849-0.529-1.065-0.755-1.638 M21.597,18.542 c2.048-0.507,2.664,1.316,3.78,2.143c1.582-0.153,2.179,0.677,3.024,1.26c1.358-1.706,5.445-0.684,6.551-2.646 c0.285,0.219,0.703,0.305,1.26,0.253c0.453-0.135,0.779-0.395,1.133-0.631c1.254,0.646,2.667-0.45,3.024-1.511 c1.531,0.02,2.346-0.678,2.142-2.395c0.655-0.226,1.46-0.304,1.513-1.133c-1.412,1.24-3.767,0.667-4.284-1.008 M48.352,19.452c-0.374,0.928-1.064,1.54-2.395,1.513c-1.049,1.974-2.803,3.242-5.166,3.905 c0.975,0.706,1.794-0.365,2.898,0c0.428,0.497,0.29,1.557,0.63,2.142c1.256,0.101,3.468,0.656,3.402-0.629 M24.998,23.833 c-0.27-0.79-1.785-1.5-2.646-0.882c-0.677-0.668-1.244-0.429-1.89-0.881 M36.086,27.992 c-0.295-1.122-2.515-1.063-3.401-0.505c-0.654-0.628-1.742-1.13-2.897-0.88c0.09-1.993-2.935-3.336-4.032-1.513"></path><path class="st0" d="M25.721,59c0,0-0.667-2.648-0.92-4.032c-0.291-1.59-0.548-3.024-1.399-3.92 c-5.536-0.746-10.369,2.649-14.142,0.14c-0.65-0.432-1.276-1.414-1.401-2.101c-0.298-1.635,0.887-3.046,0.559-4.901 c-0.245-1.402-2.677-1.933-1.26-3.92c-1.882-0.396-1.216-2.985-0.28-3.921c-1.036-1.919-4.106-1.611-4.199-4.2 c-0.07-1.95,1.988-2.778,2.939-3.782c1.057-1.112,2.8-3.508,3.081-5.04c0.293-1.602-0.194-3.159-0.14-4.341 c0.316-6.958,4.688-11.74,9.8-14.421c2.888-1.512,6.602-2.635,9.803-3.22c7.923-1.447,16.232,1.941,21.423,5.881 c4.976,3.776,8.128,9.24,7.701,16.942c-0.265,4.79-1.656,7.423-4.06,10.362c-1.067,1.304-2.139,2.596-3.081,4.06 c-0.938,1.459-2.44,3.811-2.24,6.02c0.187,2.063,1.268,4.337,1.96,6.302c0.693,1.972,1.9,3.78,1.961,6.021"></path></g></svg>