<svg class="svgicon" id="svg31" preserveAspectRatio="xMidYMid meet" xmlns="http://www.w3.org/2000/svg" viewBox="0 0 60 60"><rect x="0.8999999999999999" y="0.8999999999999999" width="58.2" height="58.2" style="stroke: rgb(255, 42, 64); fill: none; stroke-alignment: inside; stroke-width: 1.7999999999999998" rx="29.1" ry="29.1"></rect><g transform="scale(0.5) translate(30, 30)"><style> #svg31 path, #svg31 circle, #svg31 polygon, #svg31 rect { fill: rgb(255, 42, 64) } #svg31 defs &gt; path { fill: none } #svg31 path[fill="none"], #svg31 circle[fill="none"], #svg31 polygon[fill="none"], #svg31 rect[fill="none"] { fill: none } </style><style type="text/css"> #svg31 .st0{fill:none;stroke:rgb(255, 42, 64);stroke-width:1.5;stroke-linecap:round;stroke-linejoin:round;stroke-miterlimit:10;} </style><circle class="st0" cx="30" cy="30.002" r="29"></circle><circle class="st0" cx="30.001" cy="30" r="3.979"></circle><path class="st0" d="M26.209,31.298H15.134c-0.717,0-1.297-0.58-1.297-1.298c0-0.715,0.58-1.296,1.297-1.296h11.117"></path><path class="st0" d="M31.729,26.438l7.865-7.864c0.508-0.508,1.328-0.508,1.833,0c0.508,0.505,0.508,1.326,0,1.834l-7.822,7.822 "></path><circle class="st0" cx="30" cy="8.421" r="1.678"></circle><path class="st0" d="M28.322,51.582c0-0.928,0.751-1.681,1.678-1.681s1.678,0.753,1.678,1.681c0,0.925-0.751,1.678-1.678,1.678 S28.322,52.507,28.322,51.582z"></path><circle class="st0" cx="51.58" cy="30" r="1.678"></circle><circle class="st0" cx="8.42" cy="30" r="1.678"></circle><circle class="st0" cx="45.26" cy="14.741" r="1.678"></circle><circle class="st0" cx="14.741" cy="45.26" r="1.678"></circle><circle class="st0" cx="45.26" cy="45.26" r="1.678"></circle><circle class="st0" cx="14.741" cy="14.741" r="1.679"></circle></g></svg>