<svg class="svgicon" id="svg19" preserveAspectRatio="xMidYMid meet" xmlns="http://www.w3.org/2000/svg" viewBox="0 0 60 60"><style> #svg19 path, #svg19 circle, #svg19 polygon, #svg19 rect { fill: rgb(0, 0, 0) } #svg19 defs &gt; path { fill: none } #svg19 path[fill="none"], #svg19 circle[fill="none"], #svg19 polygon[fill="none"], #svg19 rect[fill="none"] { fill: none } </style><style type="text/css"> #svg19 .st0{fill:none;stroke:rgb(0, 0, 0);stroke-width:1.5001;stroke-linecap:round;stroke-linejoin:round;stroke-miterlimit:10;} #svg19 .st1{fill:none;stroke:rgb(0, 0, 0);stroke-width:1.5;stroke-linecap:round;stroke-linejoin:round;stroke-miterlimit:10;} </style><path class="st1" d="M21.844,44.258c-6.9,1.091-11.837,3.529-12.598,6.366c-0.461,1.72-0.984,4.978-1.432,8.136"></path><path class="st1" d="M52.186,58.76c-0.447-3.159-0.971-6.417-1.432-8.136c-0.757-2.826-5.711-5.256-12.598-6.354"></path><path class="st1" d="M35.352,43.931"></path><polyline class="st1" points="26.742,46.947 30.012,51.663 33.252,46.97 "></polyline><path class="st1" d="M34.858,42.503c-0.199-0.979-0.281-2.477,0.196-4.532"></path><path class="st1" d="M24.951,37.991c0.47,2.033,0.392,3.518,0.195,4.495"></path><path class="st1" d="M38.156,44.268l-2.529-2.199l-5.629,4.313c0,0,4.812,0.85,4.836,0.826L38.156,44.268z"></path><path class="st1" d="M21.844,44.268l2.531-2.199l5.623,4.313c0,0-4.807,0.85-4.832,0.826L21.844,44.268z"></path><path class="st1" d="M17.557,22.796c0.177,3.702,0.993,6.675,2.148,9.034c2.885,5.883,7.879,7.939,10.295,7.939 c2.418,0,7.412-2.057,10.295-7.939c1.312-2.674,2.188-6.14,2.188-10.562"></path><path class="st1" d="M23.766,13.566c0,0,1.031,5.637,5.049,6.401c0,0-1.34-4.012-1.236-5.541c0,0,4.326,2.006,5.666,6.018 c0,0,0.514-2.197-0.207-5.541c0,0,2.164,1.146,1.957,4.968c0,0,1.648-0.668,1.752-2.866c0,0,1.34,2.102,0.721,4.299 c0,0,0.309,0.478,0.928-0.573c0,0,2.496,1.231,2.354,5.254c0,0,2.611-3.316,1.805-6.687c0,0,0.74,1.815,0.637,3.057 c0,0,0.664-2.771-0.057-6.019c0,0,0.928,0.764,1.236,1.815c0,0,1.133-2.197-1.752-4.108c0,0,1.443-0.287,1.648,0.382 c0,0-0.721-3.535-2.885-4.491c0,0,0.928-0.286,2.164,0.956c0,0-0.516-2.675-3.605-3.535c0,0,0.617-0.286,1.648,0.191 c0,0-0.824-1.72-3.4-2.293c0,0-0.205-0.86,0.928-0.764c0,0-2.268-1.051-4.43-1.146c0,0,0.721-1.528,1.957-1.528 c0,0-2.988-0.86-5.047,0.287c0,0-1.135-0.478-0.412-0.86c0,0-5.562-0.191-5.871,2.771c0,0-1.547-0.096-2.885-0.765 c0,0-1.34,0.956-0.104,2.102c0,0-3.193,0.096-4.635,2.389c0,0,0.721-0.287,1.648-0.191c0,0-2.473,1.242-2.781,3.343 c0,0,0.721-0.286,1.543-0.191c0,0-1.441,0.86-2.059,2.58c0,0,0.617-0.191,1.545-0.286c0,0-3.193,2.483-3.193,6.018 c0,0,1.236-1.911,1.957-1.911c0,0-0.412,3.057,0.412,6.496c0,0,2.576-3.248,3.709-3.344c0,0,0.617,0.86,1.338,1.433 C21.809,21.686,20.471,14.139,23.766,13.566z"></path><path class="st1" d="M24.908,21.806c-2.369,0-4.289,0.414-4.289,3.372c0,1.863,1.064,3.728,4.289,3.728 c2.369,0,4.291-1.865,4.291-3.728C29.199,23.316,27.277,21.806,24.908,21.806z"></path><path class="st1" d="M30.801,25.178c0,1.863,1.922,3.728,4.291,3.728c3.225,0,4.291-1.865,4.291-3.728 c0-2.958-1.922-3.372-4.291-3.372S30.801,23.316,30.801,25.178z"></path><path class="st1" d="M18.801,30.244c-1.193,0.204-2.029,0.021-2.703-3.917c-0.405-2.371-0.237-3.5,0.221-4.069"></path><path class="st1" d="M41.284,30.244c1.195,0.204,2.031,0.021,2.703-3.917c0.674-3.938-0.234-4.452-1.426-4.656"></path><line class="st1" x1="29.199" y1="23.575" x2="31.316" y2="23.575"></line></svg>